<?xml version="1.0" standalone="no"?>
<!DOCTYPE svg PUBLIC "-//W3C//DTD SVG 20010904//EN"
 "http://www.w3.org/TR/2001/REC-SVG-20010904/DTD/svg10.dtd">
<svg version="1.0" xmlns="http://www.w3.org/2000/svg"
 width="512.000000pt" height="512.000000pt" viewBox="0 0 512.000000 512.000000"
 preserveAspectRatio="xMidYMid meet">
<metadata>
Created by potrace 1.14, written by Peter Selinger 2001-2017
</metadata>
<g transform="translate(0.000000,512.000000) scale(0.100000,-0.100000)"
fill="#000000" stroke="none">
<path d="M2455 5110 c-8 -13 15 -13 35 0 12 8 11 10 -7 10 -12 0 -25 -4 -28
-10z"/>
<path d="M3153 5093 c-29 -45 -56 -73 -70 -73 -7 0 -14 -6 -14 -12 -1 -7 -5 5
-8 26 -6 37 -7 38 -21 21 -9 -11 -10 -16 -2 -11 16 10 15 -6 -3 -30 -8 -10
-15 -28 -15 -39 -1 -11 -4 -14 -7 -7 -2 6 -9 10 -14 6 -5 -3 -9 4 -9 16 0 12
-4 18 -10 15 -6 -4 -10 -14 -9 -23 1 -10 -3 -28 -9 -42 -6 -14 -11 -18 -12
-10 -1 18 -40 -25 -40 -45 0 -7 -13 -26 -28 -43 -31 -33 -75 -98 -85 -126 -6
-14 -10 -16 -21 -7 -11 10 -15 8 -19 -6 -4 -14 -5 -13 -6 5 0 12 3 22 7 22 5
0 9 6 9 13 2 27 14 100 18 106 2 4 0 13 -6 21 -7 12 -9 9 -9 -10 l-1 -25 -15
25 -15 25 5 -25 c3 -16 -2 -38 -14 -58 -11 -18 -20 -38 -20 -45 0 -7 -7 -22
-16 -33 -8 -10 -12 -13 -8 -5 4 9 3 12 -4 8 -5 -4 -8 -15 -5 -25 2 -10 -4 -29
-15 -42 l-19 -23 -1 33 c0 19 3 41 9 51 5 11 5 26 0 41 l-10 23 0 -23 c-1 -14
-5 -21 -12 -16 -6 4 -9 19 -5 36 5 26 4 27 -9 14 -17 -16 -20 -56 -5 -56 6 0
10 -10 10 -22 -1 -21 -3 -20 -32 12 -20 23 -26 27 -18 12 13 -26 4 -45 -10
-22 -10 17 -4 88 9 104 6 7 6 17 1 26 -6 8 -10 26 -11 40 0 23 -1 23 -9 5 -4
-11 -6 -30 -3 -42 3 -12 0 -30 -7 -40 -10 -16 -11 -16 -6 0 3 9 1 17 -5 17 -7
0 -9 16 -5 43 4 32 1 27 -13 -23 -32 -114 -38 -120 -36 -47 0 36 -2 64 -6 61
-4 -2 -9 2 -11 8 -3 7 -8 -7 -13 -32 -7 -40 -8 -42 -15 -20 -5 14 -8 18 -9 10
-1 -11 -4 -11 -13 -2 -9 9 -9 15 -1 23 9 9 5 18 -13 36 -29 29 -36 27 -27 -6
4 -17 8 -19 14 -9 6 9 9 6 9 -12 0 -14 7 -34 16 -45 15 -20 12 -61 -8 -101 -9
-20 -12 -21 -29 -6 -10 8 -15 20 -12 25 3 6 1 7 -4 4 -6 -4 -8 -18 -6 -32 3
-13 9 -22 14 -20 4 3 7 -4 6 -15 -1 -21 -17 -29 -17 -8 0 6 -3 8 -7 5 -3 -4
-14 7 -24 23 -11 17 -23 30 -29 30 -5 0 -10 6 -10 14 0 7 -7 19 -15 26 -13 11
-15 9 -15 -13 0 -14 9 -31 21 -38 28 -19 44 -99 20 -99 -9 0 -2 -8 17 -20 17
-11 32 -21 32 -22 0 -2 -16 -3 -35 -4 -19 0 -35 3 -35 8 0 4 -9 8 -21 8 -19 0
-18 -2 8 -24 33 -28 69 -106 49 -106 -22 0 -36 23 -36 59 0 59 -16 24 -19 -41
-1 -10 -6 -18 -12 -18 -6 0 -8 7 -5 16 3 8 2 12 -4 9 -14 -9 -27 24 -33 85 -3
34 -2 47 3 35 5 -11 9 -15 9 -8 1 6 10 9 21 6 27 -7 25 5 -5 29 -20 15 -25 28
-24 61 0 43 17 100 18 65 1 -10 4 -18 9 -18 4 0 7 31 7 69 0 38 -3 67 -8 64
-5 -3 -7 -16 -4 -30 5 -29 -9 -18 -16 12 -3 17 -6 15 -17 -12 -6 -18 -15 -31
-19 -29 -4 3 -6 -7 -4 -22 3 -15 -3 -36 -11 -47 -15 -19 -16 -18 -5 10 6 18 6
26 0 20 -10 -10 -14 -30 -12 -54 1 -11 4 -11 19 0 15 13 16 12 4 -3 -8 -9 -11
-22 -7 -28 3 -5 1 -10 -4 -10 -6 0 -11 6 -11 14 0 8 -5 18 -12 22 -8 5 -9 2
-5 -9 4 -10 2 -16 -5 -14 -6 1 -12 -9 -13 -22 -2 -21 0 -22 10 -7 11 14 14 15
25 1 8 -10 9 -19 3 -27 -5 -7 -10 -29 -11 -48 -1 -28 0 -32 9 -17 10 17 31 24
27 10 0 -5 2 -16 7 -26 4 -9 4 -30 0 -45 -3 -15 -7 -37 -7 -50 0 -38 -12 -14
-13 25 0 44 -20 54 -32 17 l-9 -27 -17 35 c-18 37 -23 78 -9 78 4 0 6 20 4 45
-3 29 3 67 16 103 26 71 37 123 22 102 -5 -8 -10 -23 -10 -33 0 -10 -7 -28
-15 -40 -8 -13 -19 -47 -25 -77 -11 -57 -24 -80 -46 -80 -10 0 -9 -5 5 -19 15
-15 17 -26 10 -67 -4 -27 -8 -68 -8 -92 -1 -39 -3 -42 -16 -28 -8 8 -15 23
-15 34 0 10 -7 19 -15 19 -8 0 -15 -4 -15 -9 0 -4 5 -8 10 -8 6 0 10 -7 10
-15 0 -8 -5 -15 -12 -15 -7 0 6 -14 29 -30 38 -28 59 -57 49 -67 -2 -3 -21 1
-41 8 -25 9 -34 18 -30 29 5 11 3 12 -5 4 -15 -15 9 -57 28 -49 7 3 27 -2 44
-11 23 -12 27 -19 19 -27 -8 -8 -14 -8 -19 -2 -10 14 -52 19 -52 6 0 -5 5 -11
12 -13 6 -2 13 -14 15 -26 2 -17 -2 -22 -18 -22 -29 0 -99 -21 -99 -30 0 -4
-16 -11 -35 -14 -19 -4 -40 -13 -47 -20 -7 -7 -34 -23 -59 -35 -64 -32 -139
-98 -155 -138 -19 -43 -18 -79 2 -87 25 -9 27 -7 9 10 -18 18 -14 59 8 81 16
16 90 47 82 34 -11 -18 10 -12 33 9 12 12 22 16 22 9 0 -13 -78 -89 -92 -89
-4 0 -8 -8 -8 -17 0 -15 2 -16 10 -3 7 11 10 11 10 2 0 -7 5 -10 11 -6 7 4 7
-1 -1 -16 -11 -20 -10 -21 9 -10 17 8 21 8 21 -3 0 -7 -11 -20 -25 -27 -32
-17 -90 -121 -110 -196 -9 -33 -15 -97 -14 -144 2 -185 1 -212 -5 -253 -4 -29
-3 -38 4 -27 7 11 10 2 12 -35 1 -27 1 -62 0 -77 -3 -38 5 -35 17 5 7 24 9 5
6 -75 -2 -77 0 -111 10 -125 16 -22 24 -159 11 -185 -6 -14 -4 -18 9 -18 9 0
15 -6 13 -12 -7 -20 -50 -38 -93 -38 -59 0 -74 -14 -41 -35 20 -13 24 -20 14
-26 -9 -6 -9 -9 4 -14 10 -4 22 -4 28 0 19 12 10 -7 -12 -26 -28 -23 -11 -25
20 -3 13 9 26 14 29 11 2 -3 -5 -10 -16 -17 -12 -6 -19 -15 -16 -21 4 -5 -8
-9 -24 -9 -17 0 -31 4 -31 9 0 11 -69 -21 -70 -33 0 -4 7 -5 16 -2 8 3 12 2 9
-4 -3 -6 3 -10 15 -10 14 0 19 -4 14 -12 -5 -7 -2 -9 8 -6 8 4 40 9 71 13 l57
7 0 -35 c0 -20 4 -39 10 -42 6 -4 7 1 4 12 -5 15 -4 16 5 3 6 -8 10 -26 10
-40 0 -23 -1 -23 -9 -5 -5 11 -9 14 -9 7 -2 -37 96 -175 140 -198 31 -16 52
-19 29 -4 -13 8 -13 10 1 10 17 0 37 -32 40 -65 4 -34 -19 -74 -46 -81 -13 -3
-22 -10 -19 -15 3 -5 -2 -12 -10 -15 -32 -12 -15 -22 32 -18 43 3 45 3 28 -11
-19 -14 -19 -15 8 -15 30 0 86 -26 86 -40 0 -4 -8 -11 -17 -13 -17 -4 -17 -5
-1 -6 21 -1 13 -31 -9 -31 -10 0 -12 -6 -7 -22 3 -13 11 -24 15 -26 5 -2 9
-10 9 -17 0 -8 16 -17 38 -21 20 -4 31 -9 25 -11 -7 -3 -13 -13 -13 -24 0 -14
7 -19 26 -19 41 0 64 -18 64 -48 0 -15 9 -45 19 -66 11 -21 23 -51 26 -68 4
-16 13 -32 20 -34 7 -3 11 -14 7 -26 -4 -17 -2 -20 11 -15 13 5 17 1 17 -18 0
-22 9 -30 33 -26 4 0 8 -5 8 -12 1 -6 2 -16 4 -22 1 -5 3 -17 3 -26 1 -9 13
-28 27 -43 13 -14 25 -30 26 -34 1 -4 5 -17 10 -30 5 -13 9 -28 9 -33 0 -6 5
-7 10 -4 6 3 10 -1 10 -9 0 -8 11 -32 25 -52 14 -21 23 -44 21 -51 -3 -7 -2
-13 2 -13 5 0 16 -15 26 -32 9 -18 32 -60 51 -93 33 -58 43 -107 27 -132 -4
-6 -66 -72 -137 -145 -107 -109 -142 -154 -197 -247 -38 -63 -68 -120 -68
-126 0 -7 -48 -34 -107 -60 -168 -74 -189 -85 -249 -136 -30 -26 -84 -61 -119
-79 -36 -18 -72 -41 -81 -51 -17 -19 5 -19 894 -19 719 0 911 3 915 13 4 9 6
9 6 -1 1 -10 134 -12 649 -11 588 0 645 2 625 16 -13 8 -23 24 -23 34 0 25 17
24 31 -2 8 -15 13 -18 19 -10 10 17 75 0 75 -20 0 -10 16 -15 64 -17 60 -3 66
-1 88 25 14 15 40 46 59 68 45 52 49 58 54 70 4 11 7 14 60 75 22 25 40 49 40
53 0 5 11 23 25 41 l25 33 0 286 0 287 -22 5 c-197 44 -401 101 -443 123 -49
27 -55 27 -55 3 0 -10 -7 -22 -16 -25 -14 -5 -15 -4 -5 8 19 22 5 77 -17 69
-13 -5 -14 -3 -6 6 15 17 -34 155 -76 216 -66 95 -111 112 -200 74 l-48 -21
-61 60 c-36 34 -61 68 -61 79 0 12 11 41 25 64 14 24 25 40 25 35 0 -13 60 45
60 58 0 6 7 24 15 40 10 19 13 41 10 60 l-7 31 27 -38 c15 -21 28 -37 30 -35
3 3 -9 75 -18 108 -2 8 -2 12 0 7 3 -4 8 -5 12 -2 4 2 25 0 45 -6 43 -12 58
-5 31 15 -17 12 -16 14 11 23 16 6 40 20 54 32 l25 22 -27 -5 c-14 -3 -33 -8
-41 -12 -12 -4 -15 8 -15 78 0 51 -6 100 -16 127 -9 24 -16 53 -16 65 1 17 3
16 15 -9 l14 -30 -6 35 c-2 19 -9 46 -13 60 -5 14 -12 41 -16 60 -5 25 -9 30
-13 18 -5 -13 -10 -7 -23 23 -9 21 -12 39 -7 39 5 0 9 -7 9 -15 0 -8 8 -15 19
-15 19 0 54 -44 54 -67 0 -7 5 -13 10 -13 11 0 4 43 -14 87 -12 31 -12 33 20
61 19 16 31 34 28 40 -4 5 1 9 10 8 9 0 18 5 21 13 3 8 0 11 -7 7 -6 -4 -11
-2 -11 3 0 6 6 11 14 11 39 0 66 156 42 249 -6 26 -5 32 5 26 9 -6 11 -3 6 9
-11 27 -19 74 -10 54 6 -12 12 -15 22 -8 13 7 13 11 0 26 -13 17 -13 17 12 0
l26 -17 -1 38 c-1 25 3 37 11 36 7 -2 10 4 7 12 -4 8 -1 15 5 15 6 0 11 12 12
28 0 24 1 25 10 7 14 -31 1 81 -16 139 -8 27 -15 65 -15 85 0 20 -8 48 -17 61
-10 14 -18 29 -19 35 -5 28 -10 41 -21 53 -7 7 -13 21 -13 30 0 15 2 15 10 2
14 -22 12 -11 -8 45 -10 28 -36 74 -56 103 -21 29 -36 56 -32 59 3 4 6 1 6 -6
0 -7 4 -10 9 -7 5 4 19 -6 31 -21 15 -19 12 -10 -9 29 -32 59 -39 84 -21 73
17 -10 58 -80 66 -110 3 -14 9 -24 11 -21 11 10 -23 85 -67 151 -26 39 -53 86
-59 106 -11 35 -45 83 -59 85 -17 2 -42 17 -39 23 2 3 -8 17 -21 31 -14 14
-21 19 -17 11 6 -11 4 -13 -9 -8 -10 4 -24 7 -31 7 -8 0 -17 10 -20 21 -6 17
-9 19 -16 8 -5 -9 -9 22 -9 80 0 74 4 98 17 113 20 23 24 99 4 106 -9 3 -11
-1 -7 -14 10 -34 -7 -47 -40 -29 -16 8 -39 15 -50 15 -17 0 -23 8 -28 40 -4
29 -11 40 -24 40 -20 0 -65 44 -55 54 3 3 13 0 22 -8 22 -20 71 -31 71 -16 0
6 4 9 9 5 11 -6 54 45 45 54 -3 3 -11 -2 -18 -12 -7 -9 -20 -17 -29 -17 -24 0
-100 76 -91 91 4 7 3 10 -4 5 -6 -3 -15 1 -20 9 -4 9 -18 17 -30 18 -20 1 -20
3 -6 19 15 16 14 18 -9 23 -14 4 -31 4 -36 0 -6 -3 -11 -2 -11 3 0 6 12 13 26
16 17 5 24 12 20 21 -3 8 -9 23 -13 32 -5 13 -3 15 13 9 16 -6 15 -3 -5 18
-13 14 -29 22 -35 19 -13 -8 14 28 29 39 7 5 6 8 0 8 -6 0 -16 -5 -22 -11 -7
-7 -9 6 -7 46 3 54 2 56 -15 41 -24 -22 -40 -20 -34 4 3 11 1 20 -5 20 -11 0
-24 -25 -27 -53 -1 -10 -11 -25 -23 -33 -12 -8 -23 -25 -23 -37 -1 -14 -3 -16
-6 -6 -2 8 5 38 17 65 13 32 15 42 5 30 -15 -20 -15 -20 -15 0 0 16 -2 17 -10
4 -8 -13 -10 -12 -10 4 0 18 -2 18 -25 -4 -20 -19 -25 -20 -25 -7 0 9 -5 19
-10 22 -6 4 -9 2 -8 -3 2 -6 -1 -10 -7 -10 -5 0 -9 4 -7 9 5 19 -17 8 -23 -11
-9 -29 -27 -25 -19 5 4 15 2 25 -5 25 -6 0 -11 -5 -11 -11 0 -5 -5 -7 -10 -4
-6 4 -8 16 -4 28 5 18 4 20 -7 10 -17 -17 -38 12 -39 52 0 45 -11 75 -25 75
-7 0 -16 6 -18 13 -3 6 -6 -4 -7 -23 -1 -31 -2 -33 -10 -12 -13 30 -15 28 -16
-18 -2 -42 -37 -110 -48 -92 -3 5 1 12 9 16 8 3 15 10 15 16 0 13 -52 9 -63
-5 -4 -5 -7 4 -6 20 3 46 -1 139 -5 134 -2 -2 -6 -17 -9 -34 -7 -41 -17 -65
-28 -65 -12 0 -12 17 0 24 8 5 22 56 15 56 -2 0 -24 -12 -50 -26 -44 -25 -46
-25 -39 -5 10 31 13 101 6 106 -11 6 -27 -8 -35 -30 -6 -16 -9 -17 -17 -5 -7
11 -8 8 -4 -11 5 -20 0 -33 -19 -54 -14 -15 -28 -36 -32 -47 -7 -24 -16 -16
-20 19 -2 15 6 37 17 51 23 30 25 21 3 -13 -9 -14 -14 -25 -10 -25 12 0 37 49
41 80 3 18 11 43 20 56 14 21 14 24 0 24 -8 0 -23 -12 -32 -27z m73 -98 c-4
-19 -11 -35 -17 -35 -5 0 -14 -10 -19 -22 l-9 -23 0 23 c-1 22 40 105 48 97 2
-2 0 -20 -3 -40z m-147 -28 c-9 -7 -18 -19 -22 -27 -4 -11 -6 -10 -6 4 -1 19
29 49 39 39 3 -2 -2 -10 -11 -16z m418 -29 c-3 -8 -6 -5 -6 6 -1 11 2 17 5 13
3 -3 4 -12 1 -19z m-436 -45 c-12 -20 -14 -14 -5 12 4 9 9 14 11 11 3 -2 0
-13 -6 -23z m210 -47 c-24 -23 -28 -10 -6 20 8 10 15 28 16 39 1 12 4 9 6 -9
3 -20 -2 -35 -16 -50z m-21 43 c0 8 3 11 6 8 10 -10 -23 -71 -45 -85 -27 -16
-26 -4 3 32 14 16 22 36 19 45 -4 14 -3 14 6 1 9 -12 11 -13 11 -1z m257 -21
c-3 -7 -5 -2 -5 12 0 14 2 19 5 13 2 -7 2 -19 0 -25z m-200 -10 c-3 -8 -6 -5
-6 6 -1 11 2 17 5 13 3 -3 4 -12 1 -19z m-798 -82 c-9 -8 -10 -7 -5 7 3 10 7
26 7 35 1 9 4 6 6 -7 3 -13 -1 -28 -8 -35z m865 38 c3 -8 2 -12 -4 -9 -6 3
-10 10 -10 16 0 14 7 11 14 -7z m-471 -7 c3 -8 -1 -14 -9 -14 -7 0 -15 6 -18
14 -3 7 1 13 8 13 8 0 16 -6 19 -13z m-693 -7 c0 -5 -5 -10 -11 -10 -5 0 -7 5
-4 10 3 6 8 10 11 10 2 0 4 -4 4 -10z m660 -40 c-6 -11 -13 -20 -16 -20 -2 0
0 9 6 20 6 11 13 20 16 20 2 0 0 -9 -6 -20z m734 -25 c-4 -8 -8 -15 -10 -15
-2 0 -4 7 -4 15 0 8 4 15 10 15 5 0 7 -7 4 -15z m93 -7 c-3 -8 -6 -5 -6 6 -1
11 2 17 5 13 3 -3 4 -12 1 -19z m-37 8 c0 -3 -4 -8 -10 -11 -5 -3 -10 -1 -10
4 0 6 5 11 10 11 6 0 10 -2 10 -4z m-1137 -47 c-4 -15 -8 -17 -13 -8 -10 15
-1 41 10 34 5 -3 6 -14 3 -26z m214 -1 c-3 -8 -6 -5 -6 6 -1 11 2 17 5 13 3
-3 4 -12 1 -19z m-347 -54 c0 -8 -5 -12 -10 -9 -6 4 -8 11 -5 16 9 14 15 11
15 -7z m-296 -156 c9 -17 16 -37 16 -44 0 -7 6 -19 13 -26 21 -22 17 -58 -7
-58 -50 1 -73 48 -61 125 7 50 16 51 39 3z m216 -71 c0 -5 -4 -5 -10 -2 -5 3
-10 14 -10 23 0 15 2 15 10 2 5 -8 10 -19 10 -23z m1617 25 c6 -4 15 -21 19
-37 7 -27 6 -29 -9 -16 -10 7 -17 19 -17 26 0 6 -10 17 -22 23 -21 10 -22 11
-3 11 11 0 25 -3 32 -7z m-677 -73 c0 -14 -9 -11 -45 18 -18 15 -31 31 -29 35
6 9 74 -40 74 -53z m100 -101 c0 -13 -4 -10 -45 34 l-40 41 42 -34 c24 -19 43
-37 43 -41z m314 39 c20 -19 23 -25 10 -20 -26 10 -68 50 -52 49 7 0 26 -13
42 -29z m69 -14 c-7 -2 -19 -2 -25 0 -7 3 -2 5 12 5 14 0 19 -2 13 -5z m177
-29 c0 -2 -16 -4 -36 -4 -19 0 -33 4 -30 8 5 8 66 4 66 -4z m-512 -75 c12 -19
11 -19 -8 -9 -11 6 -20 15 -20 20 0 17 15 11 28 -11z m742 -50 c0 -6 -4 -7
-10 -4 -5 3 -10 11 -10 16 0 6 5 7 10 4 6 -3 10 -11 10 -16z m-2214 -4 c13
-13 12 -14 -15 -9 -27 6 -29 4 -24 -15 3 -11 4 -21 2 -21 -2 0 -19 -4 -37 -9
-22 -7 -30 -6 -26 0 4 7 -3 9 -17 7 -32 -4 -35 -26 -5 -34 31 -7 35 -24 5 -24
-11 0 -18 4 -14 9 3 5 -4 13 -15 16 -32 10 -20 27 46 62 68 36 80 38 100 18z
m1504 -78 c0 4 9 -3 20 -15 12 -12 26 -22 33 -23 32 -2 49 -10 93 -43 26 -20
52 -36 59 -36 19 0 13 33 -9 52 -20 16 -20 17 -2 18 32 0 84 -39 140 -107 88
-106 229 -396 204 -421 -7 -7 -5 -21 7 -44 9 -18 19 -53 21 -78 9 -89 12 -106
27 -160 9 -30 23 -131 32 -225 8 -93 19 -186 25 -205 6 -19 15 -89 20 -155 6
-66 19 -156 30 -200 20 -79 29 -181 33 -363 2 -83 0 -92 -16 -92 -17 0 -17 -1
-3 -16 23 -22 20 -37 -5 -24 -11 7 -22 10 -23 8 -9 -10 -13 -79 -5 -84 5 -3 7
-10 4 -15 -4 -5 -1 -17 4 -26 9 -15 10 -13 11 14 0 17 4 34 8 37 4 2 8 -13 7
-35 0 -21 -3 -39 -8 -39 -4 0 -2 -9 5 -20 9 -14 10 -23 3 -28 -5 -4 -11 -16
-12 -28 -1 -11 -7 -34 -13 -50 l-12 -29 -15 40 c-8 22 -17 49 -20 60 -6 25
-70 68 -76 52 -6 -16 3 -38 13 -32 4 3 10 -2 14 -10 9 -24 -12 -27 -28 -4 -23
33 -46 10 -39 -38 4 -26 3 -34 -5 -29 -9 5 -9 1 -3 -16 5 -13 14 -22 20 -20 6
1 10 -10 10 -25 -1 -16 -3 -21 -5 -13 -3 8 -18 23 -34 32 l-30 17 -1 -52 c-1
-29 -1 -55 0 -59 2 -13 -17 -9 -23 5 -3 6 -3 -3 0 -22 5 -25 3 -32 -6 -26 -9
6 -9 3 -1 -13 6 -11 11 -31 11 -43 0 -18 -2 -19 -15 -9 -13 11 -15 10 -14 -6
4 -38 -1 -65 -11 -59 -15 9 -12 -3 7 -24 20 -24 26 -54 10 -48 -7 2 -13 14
-15 26 -2 15 -9 21 -20 18 -9 -2 -15 -10 -13 -18 12 -42 12 -69 2 -69 -7 0 -9
5 -6 11 12 18 -4 57 -25 64 -19 6 -20 13 -16 122 3 63 8 135 12 159 3 24 2 57
-4 72 -6 15 -14 36 -18 47 -4 11 -8 32 -9 47 -3 53 -40 153 -66 178 -15 14
-30 35 -33 47 -9 27 -170 196 -179 187 -4 -4 -7 -23 -7 -43 0 -25 14 -56 49
-110 49 -75 64 -112 76 -183 6 -39 29 -91 36 -83 3 2 5 -11 5 -30 0 -26 -4
-35 -17 -35 -10 0 -20 -6 -22 -12 -4 -10 -8 -10 -15 1 -14 20 -21 0 -10 -29 6
-16 12 -20 16 -13 6 9 11 6 20 -7 10 -17 10 -20 -3 -20 -12 0 -14 -6 -9 -26 5
-19 4 -25 -5 -20 -6 4 -11 2 -11 -3 0 -6 -7 -11 -16 -11 -10 0 -14 6 -10 15 5
15 -22 15 -91 0 -13 -3 -23 -1 -23 6 0 6 -6 16 -13 23 -10 11 -15 10 -26 -1
-11 -13 -15 -13 -22 -1 -7 10 -9 10 -9 -2 -1 -11 -4 -10 -17 5 -15 19 -15 19
-9 -9 7 -26 6 -28 -9 -16 -9 7 -14 19 -11 27 3 7 1 13 -4 13 -6 0 -10 -5 -10
-12 0 -6 -3 -9 -6 -5 -4 3 -13 -1 -21 -9 -11 -10 -32 -14 -72 -12 l-56 3 0 40
c0 35 3 41 23 43 12 1 22 -4 22 -11 0 -6 6 -3 12 7 11 19 11 19 24 1 16 -22
18 -12 4 16 -8 13 -7 19 0 19 6 0 3 11 -6 25 -9 14 -14 28 -10 32 3 3 6 1 6
-6 0 -7 5 -9 10 -6 6 3 14 -4 18 -16 6 -16 11 -19 16 -10 5 7 1 20 -8 30 -9
10 -13 21 -9 24 3 4 0 7 -8 8 -8 0 -4 4 9 9 12 6 22 18 22 30 0 11 7 20 15 20
8 0 14 -3 14 -7 -3 -20 2 -23 17 -8 12 12 14 19 6 27 -9 9 -8 15 0 26 9 10 8
16 -3 23 -12 7 -12 9 0 9 9 0 6 7 -10 21 -16 14 -31 18 -48 14 -29 -7 -45 12
-26 32 8 7 28 13 45 13 37 0 87 24 112 54 17 20 17 22 -3 39 -35 29 -102 23
-142 -13 -19 -16 -39 -30 -45 -30 -6 0 -18 -7 -26 -16 -9 -8 -16 -11 -16 -6 0
5 -11 17 -25 26 -35 23 -114 4 -116 -28 -1 -11 -2 -25 -4 -31 -1 -5 -3 -14 -3
-18 -1 -5 -21 11 -44 36 -24 24 -58 52 -76 61 -32 17 -99 19 -108 4 -8 -13
-41 -9 -53 6 -21 25 -25 109 -7 144 15 29 15 32 0 32 -25 0 -70 -55 -120 -146
-25 -46 -49 -86 -54 -89 -13 -8 -70 -130 -70 -149 0 -9 -7 -19 -15 -22 -8 -4
-12 -10 -10 -15 3 -4 -4 -18 -15 -29 -27 -27 -49 -128 -30 -140 7 -4 9 -13 6
-19 -13 -21 -26 -11 -26 19 0 17 -4 30 -9 30 -5 0 -12 8 -14 18 -3 9 -5 1 -6
-18 0 -26 2 -31 9 -20 8 13 10 13 10 -2 0 -26 -11 -48 -21 -42 -5 3 -10 -1
-10 -8 -1 -7 -4 3 -8 22 -5 29 -10 34 -28 32 -13 -2 -23 2 -23 7 0 6 5 11 10
11 6 0 10 7 10 15 0 8 -7 15 -15 15 -8 0 -15 -7 -15 -15 0 -8 -4 -15 -10 -15
-5 0 -10 9 -10 21 0 14 -5 19 -14 16 -8 -3 -20 1 -26 8 -7 8 -16 12 -21 9 -15
-9 -66 34 -71 59 -3 13 -1 35 4 48 8 23 7 23 -7 5 -15 -20 -15 -20 -17 0 0 10
-1 27 0 36 1 11 -3 15 -13 12 -14 -6 -20 11 -16 45 2 7 -2 10 -8 6 -7 -4 -12
5 -12 22 -3 54 -4 58 -12 71 -5 6 -7 83 -5 170 3 183 1 279 -13 532 -19 333
-14 660 11 660 4 0 6 9 3 19 -3 11 9 47 26 81 17 33 31 67 31 74 0 14 64 76
79 76 4 0 16 17 27 37 10 21 24 43 29 50 6 6 24 35 40 64 51 91 151 179 202
179 8 0 22 7 31 16 11 12 17 13 20 5 3 -9 7 -9 18 0 7 6 20 9 28 6 7 -3 22 0
32 7 11 7 39 14 64 15 25 2 48 8 52 14 5 8 11 7 21 -1 11 -9 18 -8 32 8 10 11
24 20 32 20 7 0 13 4 13 8 0 5 26 8 58 7 31 0 71 3 87 8 39 11 114 10 349 -7
l69 -5 -18 22 c-10 12 -2 5 18 -15 21 -21 37 -35 37 -31z m690 -48 c5 9 9 10
14 2 4 -6 0 -14 -9 -17 -17 -7 -65 31 -65 50 0 6 12 -2 26 -18 19 -21 28 -26
34 -17z m-2280 -33 c0 -2 -7 -6 -15 -10 -8 -3 -15 -1 -15 4 0 6 7 10 15 10 8
0 15 -2 15 -4z m2207 -58 c-3 -8 -6 -5 -6 6 -1 11 2 17 5 13 3 -3 4 -12 1 -19z
m-2292 -148 c-3 -5 -16 -15 -28 -21 -22 -12 -22 -12 -3 10 19 21 43 30 31 11z
m-67 -105 c-6 -14 -15 -25 -20 -25 -11 0 -10 7 2 31 16 28 32 23 18 -6z m2692
-20 c11 -13 10 -14 -4 -9 -9 3 -16 10 -16 15 0 13 6 11 20 -6z m-2717 -35 c-5
-19 -23 -39 -23 -25 0 9 20 45 24 45 2 0 2 -9 -1 -20z m-47 -96 c-4 -20 -10
-34 -12 -31 -3 3 -2 21 2 41 3 21 9 35 11 32 3 -3 2 -21 -1 -42z m2836 -34 c9
-16 13 -32 9 -34 -5 -3 -13 6 -20 20 -6 14 -16 22 -21 19 -6 -3 -10 3 -10 14
0 27 21 18 42 -19z m49 -182 c11 -21 11 -22 -4 -9 -10 7 -17 17 -17 22 0 15 9
10 21 -13z m14 -167 c-3 -6 -11 -11 -16 -11 -5 0 -4 6 3 14 14 16 24 13 13 -3z
m22 -47 c-3 -4 -2 -16 4 -26 16 -30 -4 -43 -27 -17 -18 20 -18 21 1 35 19 14
34 19 22 8z m-98 -357 c1 -5 -3 -5 -9 -2 -5 3 -10 16 -9 28 0 21 1 21 9 2 5
-11 9 -24 9 -28z m-100 -183 c-13 -27 -31 -50 -39 -53 -11 -3 -10 2 5 18 14
17 16 24 7 30 -9 5 -7 12 8 26 11 10 20 25 20 34 0 11 3 12 11 4 9 -9 6 -24
-12 -59z m-2649 -74 c0 -5 -5 -10 -11 -10 -5 0 -7 5 -4 10 3 6 8 10 11 10 2 0
4 -4 4 -10z m70 -136 c0 -16 6 -24 17 -24 9 0 13 -3 10 -7 -4 -3 -2 -12 4 -20
9 -10 8 -13 -5 -13 -9 0 -16 5 -16 11 0 5 -4 7 -10 4 -10 -6 -18 21 -18 63 -1
12 3 20 9 17 5 -4 9 -17 9 -31z m2482 4 c2 -18 0 -42 -3 -53 -17 -51 -43 -105
-51 -105 -12 0 -10 128 3 153 12 22 28 37 41 37 4 0 8 -15 10 -32z m51 -73
c-3 -9 -8 -14 -10 -11 -3 3 -2 9 2 15 9 16 15 13 8 -4z m-2277 -410 c-10 -8
-24 -11 -29 -8 -6 4 -2 10 9 14 31 12 40 9 20 -6z m2252 -20 c-3 -3 -9 2 -12
12 -6 14 -5 15 5 6 7 -7 10 -15 7 -18z m-1827 -138 c-13 -13 -15 21 -3 50 6
15 8 13 10 -11 2 -16 -1 -33 -7 -39z m1615 18 c-3 -8 -1 -15 4 -15 15 0 12
-27 -3 -33 -9 -3 -12 4 -11 22 2 37 3 41 10 41 3 0 4 -7 0 -15z m-339 -42 c-3
-10 -5 -2 -5 17 0 19 2 27 5 18 2 -10 2 -26 0 -35z m-499 12 c-3 -3 -9 2 -12
12 -6 14 -5 15 5 6 7 -7 10 -15 7 -18z m-146 -52 c7 -9 15 -6 33 13 19 21 24
22 29 8 14 -37 7 -51 -31 -58 -46 -7 -62 9 -54 56 3 24 6 27 9 13 2 -11 9 -25
14 -32z m14 10 c-10 -10 -19 5 -10 18 6 11 8 11 12 0 2 -7 1 -15 -2 -18z m-52
-15 c5 -21 3 -26 -7 -22 -9 3 -12 14 -9 30 5 29 7 28 16 -8z m-84 12 c3 -1 8
-2 13 -1 13 2 7 -27 -9 -43 -20 -20 -25 -20 -17 0 4 10 -1 17 -16 21 -21 5
-26 14 -15 25 5 5 28 4 44 -2z m1105 0 c3 -5 3 -15 -1 -21 -6 -11 -23 6 -24
24 0 10 18 9 25 -3z m42 -48 c-15 -18 -28 6 -20 37 l6 23 13 -23 c9 -18 9 -28
1 -37z m-1351 26 c7 -22 47 -24 68 -2 9 8 16 12 16 8 0 -3 6 -1 14 5 18 15 30
-11 13 -28 -7 -7 -7 -11 -1 -11 6 0 15 10 21 22 9 21 10 21 25 -9 l15 -31 -88
-11 c-81 -10 -139 -8 -139 7 0 3 5 20 11 37 13 35 36 42 45 13z m-304 -86 c-2
-7 -7 -10 -10 -8 -3 3 -11 -2 -18 -11 -11 -15 -11 -14 -7 10 3 15 9 27 14 27
5 0 9 8 10 18 0 14 2 14 8 -3 5 -11 6 -26 3 -33z m778 5 c142 -2 145 -2 148
-24 3 -17 -4 -26 -25 -34 -15 -6 -38 -8 -50 -6 -14 3 -23 -1 -23 -9 0 -18 -20
-22 -148 -29 -73 -4 -118 -2 -126 4 -7 6 -43 12 -81 14 -49 3 -71 8 -80 21 -7
9 -19 14 -28 10 -10 -3 -20 2 -27 16 -6 12 -10 23 -8 24 28 17 81 23 183 19
66 -2 185 -5 265 -6z m860 4 c0 -6 -4 -13 -10 -16 -5 -3 -10 1 -10 9 0 9 5 16
10 16 6 0 10 -4 10 -9z m-480 -11 c0 -5 -2 -10 -4 -10 -3 0 -8 5 -11 10 -3 6
-1 10 4 10 6 0 11 -4 11 -10z m444 -5 c3 -8 1 -15 -4 -15 -6 0 -10 7 -10 15 0
8 2 15 4 15 2 0 6 -7 10 -15z m-1581 -38 c4 -26 2 -35 -5 -31 -7 5 -9 1 -5 -9
7 -20 -1 -47 -14 -47 -13 0 -11 58 3 97 14 38 14 39 21 -10z m1497 -72 c0 -8
-4 -15 -9 -15 -13 0 -22 16 -14 24 11 11 23 6 23 -9z m-1693 -57 c-3 -7 -5 -2
-5 12 0 14 2 19 5 13 2 -7 2 -19 0 -25z m1307 -76 c5 -23 7 -82 5 -132 0 -8 2
-43 5 -77 3 -35 1 -63 -3 -63 -8 0 -16 -30 -25 -95 -2 -16 -18 -54 -35 -83
-17 -29 -31 -57 -31 -62 0 -5 -5 -12 -11 -16 -8 -4 -9 1 -4 15 4 13 2 28 -5
36 -10 13 -14 12 -27 0 -8 -8 -22 -15 -32 -15 -9 0 -22 -5 -29 -12 -9 -9 -12
-9 -12 3 0 12 -2 12 -9 0 -8 -12 -13 -12 -24 -3 -12 10 -16 9 -21 -3 -8 -23
-26 -18 -26 8 l-1 22 -12 -23 c-14 -25 -27 -20 -27 10 0 15 -3 17 -19 8 -16
-8 -21 -6 -25 8 -3 9 -4 2 -2 -16 1 -18 -1 -35 -6 -38 -4 -3 -9 7 -9 23 l-1
28 -8 -30 -8 -30 -1 33 c0 18 -5 31 -9 28 -5 -3 -7 -20 -5 -38 4 -31 3 -32
-11 -14 -9 11 -13 31 -11 50 4 28 4 29 -4 6 -5 -14 -9 -21 -10 -16 -1 5 -8 3
-16 -4 -9 -8 -15 -8 -15 -2 0 6 6 13 13 15 9 4 8 8 -3 16 -12 8 -16 6 -22 -12
-5 -19 -6 -18 -8 8 l-2 30 -11 -35 c-11 -35 -11 -35 -15 -7 -4 31 -17 35 -26
10 -5 -13 -9 -14 -15 -5 -4 7 -20 15 -36 18 -31 6 -97 52 -90 64 3 4 -2 13
-10 20 -8 7 -15 23 -15 36 0 15 -6 24 -15 24 -8 0 -15 6 -15 13 0 6 -3 22 -6
35 -10 35 11 26 42 -20 37 -56 76 -97 92 -98 19 0 15 67 -5 79 -10 5 -14 13
-10 18 5 4 13 0 18 -10 6 -9 16 -17 24 -17 23 0 -12 65 -41 79 -13 6 -24 15
-24 21 0 12 15 6 42 -18 9 -8 23 -12 30 -9 7 2 29 -4 48 -13 19 -10 65 -25
102 -34 61 -15 70 -14 118 1 65 21 143 103 191 199 20 41 44 73 58 81 13 6 28
18 33 27 12 22 36 9 42 -22z m286 -22 c0 -5 -4 -10 -10 -10 -5 0 -10 5 -10 10
0 6 5 10 10 10 6 0 10 -4 10 -10z m434 -155 c-5 -19 -9 -23 -15 -14 -4 7 -3
21 3 32 13 26 21 15 12 -18z m-19 -61 c0 -14 -3 -28 -7 -30 -4 -3 -8 -12 -8
-20 0 -14 -20 -62 -71 -170 -10 -23 -19 -45 -19 -49 0 -4 -20 -34 -45 -67 -48
-64 -49 -66 -37 -85 6 -9 11 -6 21 8 10 17 10 20 -1 13 -17 -10 7 21 42 55 14
14 24 28 23 31 -1 4 4 7 12 7 9 0 13 -10 11 -26 -1 -14 2 -32 8 -40 8 -11 8
-13 -1 -7 -8 4 -13 2 -13 -8 0 -8 -4 -18 -10 -21 -6 -4 -7 1 -3 12 6 16 5 16
-10 4 -10 -7 -16 -21 -15 -30 2 -8 -4 -16 -12 -16 -8 0 -15 -7 -15 -15 0 -8
-8 -14 -17 -12 -9 1 -19 -6 -22 -16 -9 -26 -56 -89 -56 -74 0 10 -3 10 -14 0
-8 -7 -12 -15 -10 -17 6 -7 -30 -30 -48 -31 -9 0 -18 6 -21 13 -4 12 -2 18 25
72 9 17 21 47 27 68 7 20 17 37 22 37 6 0 24 28 40 63 17 34 53 100 80 147 27
47 68 120 91 162 24 42 45 74 47 72 3 -2 5 -16 6 -30z m-1053 -16 c-15 -15
-26 -4 -18 18 5 13 9 15 18 6 9 -9 9 -15 0 -24z m1429 -53 c6 4 5 -2 -2 -13
-11 -17 -9 -40 9 -134 30 -158 44 -281 46 -414 2 -63 2 -114 0 -114 -1 0 -11
-3 -21 -6 -12 -4 -14 -3 -6 3 10 7 9 14 -3 32 -13 18 -18 20 -25 10 -15 -25
-10 -36 25 -53 38 -18 42 -31 45 -149 l2 -69 -33 7 c-42 9 -42 9 -29 33 6 12
7 31 1 53 -14 53 -31 150 -35 196 -2 24 -7 48 -10 53 -4 6 -9 40 -12 75 -4 48
-2 65 7 65 9 0 9 4 3 13 -11 13 -12 17 -16 86 -2 40 1 46 28 63 20 12 24 18
13 18 -9 0 -20 -5 -23 -10 -4 -6 -11 -8 -16 -4 -14 8 0 24 22 24 12 0 19 7 19
18 0 14 -7 18 -30 16 -39 -3 -38 10 0 26 27 11 30 17 26 44 -3 17 -8 52 -11
79 -4 26 -10 47 -16 47 -5 0 -9 19 -9 43 l0 42 20 -43 c12 -26 24 -41 31 -37z
m-1724 43 c-3 -8 -6 -5 -6 6 -1 11 2 17 5 13 3 -3 4 -12 1 -19z m989 -25 c-4
-16 -14 -34 -23 -40 -10 -8 -12 -13 -5 -13 7 0 12 -4 12 -10 0 -13 -27 -13
-35 1 -4 5 0 18 9 28 9 10 13 21 9 24 -3 4 -1 7 5 7 7 0 12 7 12 15 0 8 5 15
11 15 7 0 9 -10 5 -27z m421 -25 c-3 -8 -6 -5 -6 6 -1 11 2 17 5 13 3 -3 4
-12 1 -19z m-461 -72 c3 -8 -2 -28 -10 -45 -9 -17 -16 -33 -16 -36 -1 -16 -13
-34 -21 -29 -5 3 -9 -4 -9 -15 0 -12 -7 -21 -15 -21 -20 0 -19 3 10 46 28 41
31 54 13 54 -8 0 -5 7 6 15 17 13 17 15 3 21 -9 3 -14 10 -11 15 8 14 44 10
50 -5z m414 -25 c5 -19 5 -31 -1 -31 -5 0 -9 9 -9 19 0 11 -5 23 -10 26 -6 4
-8 11 -4 16 8 14 13 8 24 -30z m-626 -16 c3 -8 1 -15 -4 -15 -6 0 -10 7 -10
15 0 8 2 15 4 15 2 0 6 -7 10 -15z m606 -27 c0 -12 -3 -18 -7 -14 -10 10 -11
46 -1 40 4 -3 8 -15 8 -26z m-25 13 c3 -5 1 -12 -5 -16 -5 -3 -10 1 -10 9 0
18 6 21 15 7z m282 -17 c-3 -3 -12 -4 -19 -1 -8 3 -5 6 6 6 11 1 17 -2 13 -5z
m-293 -46 c-4 -6 0 -14 7 -19 11 -7 9 -9 -8 -9 -17 0 -20 5 -17 23 l5 22 -10
-22 c-6 -13 -15 -23 -21 -23 -6 0 -4 12 5 31 13 25 19 28 31 19 7 -7 11 -17 8
-22z m306 13 c0 -5 -9 -13 -20 -16 -11 -4 -18 -10 -15 -15 3 -4 -3 -7 -12 -5
-10 2 -22 4 -26 4 -14 2 4 22 27 31 28 12 46 12 46 1z m5 -40 c3 -5 1 -12 -5
-16 -5 -3 -10 1 -10 9 0 18 6 21 15 7z m-746 -28 c2 -1 -6 -1 -18 0 -11 1 -21
8 -21 15 0 12 3 12 18 1 9 -7 19 -14 21 -16z m424 -14 c-4 -15 -8 -17 -14 -8
-8 14 -3 29 11 29 4 0 6 -9 3 -21z m-591 -32 c2 -24 12 -38 41 -57 21 -13 34
-26 28 -28 -12 -4 -15 -32 -3 -32 4 0 15 12 24 28 11 17 18 21 18 11 0 -8 -13
-28 -30 -44 -16 -16 -30 -25 -30 -19 0 5 -12 18 -27 28 -14 11 -23 14 -19 8 4
-7 2 -12 -3 -12 -6 0 -11 9 -11 19 0 10 -7 22 -16 25 -12 5 -15 2 -10 -11 6
-15 4 -15 -14 2 -25 23 -26 11 -1 -24 15 -21 17 -28 6 -28 -8 0 -16 6 -19 13
-8 21 -38 4 -33 -17 3 -11 -6 -30 -21 -46 -15 -15 -25 -36 -23 -47 1 -11 -2
-16 -8 -12 -6 4 -11 17 -12 29 0 21 -1 21 -10 -3 -6 -14 -8 -38 -5 -55 4 -21
3 -25 -4 -14 -5 8 -10 27 -12 42 -4 30 -18 49 -18 24 0 -9 -4 -17 -10 -17 -13
0 -13 2 5 36 8 16 15 35 15 42 0 19 -20 14 -21 -5 0 -16 -1 -16 -8 1 -7 18 -8
18 -14 2 -4 -10 -8 -30 -8 -44 -1 -27 -1 -27 -9 3 -4 17 -8 25 -9 18 -1 -16
-41 -12 -41 5 0 7 -5 10 -11 6 -7 -4 -9 -22 -6 -43 3 -20 3 -30 0 -23 -2 6 -9
10 -13 7 -5 -3 -7 4 -5 15 2 12 -1 31 -6 44 -9 19 -6 31 15 65 27 42 40 49 52
30 5 -8 10 -6 16 5 7 13 13 14 29 5 15 -8 18 -14 9 -24 -8 -9 -7 -14 3 -18 7
-3 19 3 25 13 6 10 25 21 42 25 21 5 30 12 30 27 0 17 5 20 30 16 28 -4 30 -2
30 26 0 22 3 27 9 17 7 -11 11 -10 20 7 16 29 39 17 43 -21z m96 -2 c-3 -3
-17 1 -31 8 -20 11 -24 16 -15 25 9 9 17 8 32 -8 11 -11 17 -22 14 -25z m825
16 c-2 -11 2 -21 7 -21 5 0 9 -12 9 -27 -1 -16 1 -47 5 -71 4 -33 2 -44 -10
-49 -12 -4 -13 -8 -3 -13 6 -5 13 -23 14 -42 1 -18 5 -45 9 -60 4 -17 2 -28
-4 -28 -18 0 -12 -72 8 -86 16 -13 16 -14 -3 -7 -11 4 -26 13 -33 20 -15 15
-29 17 -36 5 -6 -9 81 -55 92 -48 15 9 -1 -87 -17 -103 -16 -16 -18 -16 -36 1
-11 10 -31 18 -45 17 -50 -4 -70 1 -90 23 -17 19 -24 21 -40 10 -13 -8 -20 -9
-20 -1 0 5 -3 8 -8 5 -4 -2 -30 0 -57 6 -28 6 -58 10 -67 10 -10 -1 -18 4 -18
10 0 6 -10 8 -23 5 -12 -4 -27 -3 -34 1 -19 12 -14 98 8 124 36 44 53 58 71
58 11 0 18 7 18 20 0 11 8 28 18 38 10 10 17 23 14 30 -2 6 15 28 38 48 23 21
53 57 67 81 16 28 31 42 39 39 8 -3 14 1 14 10 0 8 5 12 11 9 6 -4 8 -14 5
-22 -4 -10 1 -9 22 5 52 37 78 38 75 3z m403 1 c-17 -16 -18 -16 -5 5 7 12 15
20 18 17 3 -2 -3 -12 -13 -22z m-1178 -10 c2 -7 -6 -12 -17 -12 -25 0 -28 -17
-3 -22 15 -3 15 -4 1 -10 -28 -11 -40 5 -27 34 12 26 39 31 46 10z m-1095 -43
c-6 -6 -7 3 -4 23 4 28 6 29 9 9 2 -13 0 -27 -5 -32z m1021 30 c2 -2 6 -17 10
-34 l8 -30 -24 23 c-14 12 -29 22 -35 22 -6 0 -13 6 -16 14 -4 10 3 13 24 11
16 -1 31 -4 33 -6z m-1047 -21 c-3 -8 -6 -5 -6 6 -1 11 2 17 5 13 3 -3 4 -12
1 -19z m2293 -20 c0 -46 -89 -166 -113 -151 -9 5 -9 3 0 -8 10 -12 8 -17 -9
-28 -17 -11 -18 -15 -7 -22 12 -7 12 -9 0 -9 -8 0 -11 -7 -8 -20 3 -11 1 -18
-4 -14 -5 3 -9 -4 -9 -15 0 -11 -7 -26 -15 -35 -8 -8 -15 -22 -15 -30 0 -9 -4
-16 -10 -16 -5 0 -10 -15 -11 -32 l-1 -33 -9 30 c-24 80 -16 187 12 169 5 -3
8 -2 7 3 -1 4 1 27 5 49 5 31 11 41 24 40 12 -1 19 10 25 37 4 21 19 50 33 65
14 15 25 30 25 34 0 4 14 6 30 4 17 -2 30 1 30 6 0 5 5 6 10 3 6 -3 10 -15 10
-27z m-2262 -16 c13 12 14 10 3 -9 -6 -13 -16 -23 -21 -23 -6 0 -10 10 -9 23
0 12 3 16 6 9 4 -10 8 -10 21 0z m46 -42 c-10 -16 -20 -27 -22 -25 -5 5 26 55
34 55 3 0 -3 -13 -12 -30z m35 -15 c-12 -19 -23 -35 -25 -35 -2 0 4 16 13 35
9 19 20 35 25 35 4 0 -2 -16 -13 -35z m-71 -7 c0 -30 -1 -31 -9 -10 -5 13 -7
28 -3 33 9 15 11 11 12 -23z m369 -20 c-3 -8 -6 -5 -6 6 -1 11 2 17 5 13 3 -3
4 -12 1 -19z m563 2 c-20 -13 -33 -13 -25 0 3 6 14 10 23 10 15 0 15 -2 2 -10z
m-608 -22 c-7 -7 -12 -8 -12 -2 0 14 12 26 19 19 2 -3 -1 -11 -7 -17z m-283
-42 c-9 -8 -10 -7 -5 7 3 10 7 24 7 30 1 7 3 4 6 -7 3 -10 -1 -23 -8 -30z m51
28 c0 -8 -4 -12 -10 -9 -5 3 -10 10 -10 16 0 5 5 9 10 9 6 0 10 -7 10 -16z
m207 -16 c-3 -8 -6 -5 -6 6 -1 11 2 17 5 13 3 -3 4 -12 1 -19z m50 -10 c-3 -8
-6 -5 -6 6 -1 11 2 17 5 13 3 -3 4 -12 1 -19z m43 -9 c0 -5 -4 -9 -10 -9 -5 0
-10 7 -10 16 0 8 5 12 10 9 6 -3 10 -10 10 -16z m-312 -20 c-3 -8 -7 -3 -11
10 -4 17 -3 21 5 13 5 -5 8 -16 6 -23z m559 -1 c-3 -8 -6 -5 -6 6 -1 11 2 17
5 13 3 -3 4 -12 1 -19z m763 -118 c5 8 8 -5 8 -34 l0 -48 -21 19 c-12 10 -23
18 -25 19 -1 0 3 16 10 35 9 26 13 29 16 15 3 -14 6 -16 12 -6z m-178 -52 c-7
-7 -12 -8 -12 -2 0 14 12 26 19 19 2 -3 -1 -11 -7 -17z m118 12 c0 -5 -2 -10
-4 -10 -3 0 -8 5 -11 10 -3 6 -1 10 4 10 6 0 11 -4 11 -10z m155 -71 c7 -7 -4
-8 -35 -3 -60 9 -79 27 -20 19 24 -3 49 -10 55 -16z m50 -9 c18 -8 17 -9 -7
-9 -16 -1 -28 4 -28 9 0 12 8 12 35 0z m60 -13 c15 -4 14 -5 -7 -6 -21 -1 -28
4 -28 17 0 11 3 13 8 6 4 -7 16 -14 27 -17z m-445 -23 c0 -8 -4 -14 -10 -14
-5 0 -10 9 -10 21 0 11 5 17 10 14 6 -3 10 -13 10 -21z m60 -4 c0 -3 -7 -7
-15 -7 -8 0 -15 9 -15 20 0 16 3 17 15 7 8 -7 15 -16 15 -20z m50 -6 c0 -8 -6
-11 -15 -8 -8 4 -15 15 -15 26 0 17 3 18 15 8 8 -7 15 -19 15 -26z m-347 -27
c-8 -15 -23 5 -23 31 l0 27 14 -25 c7 -14 11 -28 9 -33z m187 38 c0 -8 -4 -15
-10 -15 -5 0 -10 7 -10 15 0 8 5 15 10 15 6 0 10 -7 10 -15z m204 -1 c4 -9 4
-19 2 -21 -8 -8 -26 8 -26 23 0 19 16 18 24 -2z m52 -21 c-7 -17 -8 -17 -17 0
-12 21 -2 44 13 29 6 -6 8 -19 4 -29z m324 27 c0 -5 -7 -10 -15 -10 -8 0 -15
5 -15 10 0 6 7 10 15 10 8 0 15 -4 15 -10z m-673 -26 c-9 -9 -28 6 -21 18 4 6
10 6 17 -1 6 -6 8 -13 4 -17z m44 11 c1 -17 -18 -17 -25 0 -4 11 -1 15 10 13
8 -2 15 -7 15 -13z m359 -11 c0 -14 -4 -23 -10 -19 -5 3 -10 15 -10 26 0 10 5
19 10 19 6 0 10 -12 10 -26z m57 -18 c-11 -27 -27 -17 -27 16 0 30 1 31 16 16
9 -9 14 -24 11 -32z m305 32 c10 0 21 -4 24 -10 8 -12 -76 -1 -90 13 -5 5 3 6
20 2 16 -3 37 -5 46 -5z m-812 -13 c0 -8 -4 -15 -10 -15 -5 0 -10 7 -10 15 0
8 5 15 10 15 6 0 10 -7 10 -15z m555 -16 c8 -23 1 -34 -14 -24 -13 8 -15 45
-2 45 5 0 13 -9 16 -21z m-649 -16 c-10 -10 -19 5 -10 18 6 11 8 11 12 0 2 -7
1 -15 -2 -18z m702 -6 c3 -21 0 -26 -12 -21 -19 7 -22 58 -3 52 6 -3 13 -17
15 -31z m45 -4 c6 -32 3 -38 -12 -28 -13 8 -15 55 -2 55 5 0 11 -12 14 -27z
m-783 7 c0 -5 -4 -10 -10 -10 -5 0 -10 5 -10 10 0 6 5 10 10 10 6 0 10 -4 10
-10z m832 -25 c6 -29 -7 -43 -16 -19 -9 24 -7 56 3 50 5 -3 11 -17 13 -31z
m43 -17 c5 -18 3 -28 -4 -28 -6 0 -11 9 -11 19 0 11 -3 28 -6 38 -5 12 -4 15
4 8 6 -5 14 -22 17 -37z m-1437 13 c11 -7 11 -9 -1 -14 -9 -3 -21 1 -27 9 -10
11 -10 14 1 14 8 0 20 -4 27 -9z m477 -1 c3 -5 1 -10 -4 -10 -6 0 -11 5 -11
10 0 6 2 10 4 10 3 0 8 -4 11 -10z m1050 -20 c26 -22 18 -40 -19 -40 -30 0
-34 4 -38 29 -4 25 -1 29 19 26 12 -1 29 -8 38 -15z"/>
<path d="M2080 4391 c0 -5 5 -13 10 -16 6 -3 10 -2 10 4 0 5 -4 13 -10 16 -5
3 -10 2 -10 -4z"/>
<path d="M3538 3174 c-3 -3 -46 -7 -95 -9 -57 -2 -104 -10 -129 -21 -21 -9
-42 -17 -46 -16 -3 1 -12 -5 -18 -13 -7 -8 -18 -15 -24 -15 -13 0 -36 -34 -41
-63 -3 -11 -12 -28 -22 -39 -17 -18 -16 -21 10 -68 15 -27 27 -63 27 -83 0
-46 16 -87 33 -87 7 0 20 -14 28 -31 l14 -32 149 -3 c164 -4 188 2 200 51 6
25 -17 86 -32 83 -4 0 -22 5 -39 12 -38 14 -35 30 5 30 54 0 104 -22 143 -62
21 -22 39 -37 39 -33 0 4 10 1 23 -7 31 -21 88 -28 94 -12 8 21 -15 79 -45
110 -57 61 -111 84 -254 110 -37 6 -48 17 -29 29 6 3 42 9 82 14 40 5 76 15
80 23 18 28 9 45 -31 58 -38 13 -39 14 -20 27 18 13 19 16 5 30 -14 13 -18 14
-33 1 -27 -24 -46 -27 -73 -12 -13 8 -17 14 -9 13 31 -3 50 1 50 11 0 11 -33
14 -42 4z m-277 -77 c-10 -9 -11 -8 -5 6 3 10 9 15 12 12 3 -3 0 -11 -7 -18z
m451 -188 c38 -20 68 -53 68 -78 0 -9 -8 -6 -24 10 -22 22 -105 59 -145 64 -9
1 -32 6 -51 11 l-35 9 45 6 c56 8 95 2 142 -22z m-273 -90 c-10 -15 -22 -41
-25 -58 -7 -33 -11 -36 -33 -22 -17 11 -8 42 24 79 33 39 62 40 34 1z m31 -59
c0 -11 7 -23 15 -26 16 -7 21 -34 6 -34 -14 0 -34 30 -37 56 -1 13 2 24 7 24
5 0 9 -9 9 -20z m120 -15 c0 -8 -4 -15 -10 -15 -5 0 -10 7 -10 15 0 8 5 15 10
15 6 0 10 -7 10 -15z"/>
<path d="M2660 3080 c0 -11 -12 -15 -43 -17 -23 -1 -58 -2 -76 -4 -20 -1 -37
3 -39 9 -3 9 -9 9 -23 1 -11 -5 -17 -14 -14 -20 4 -5 1 -9 -4 -9 -6 0 -11 5
-11 10 0 6 -11 10 -25 10 -14 0 -25 4 -25 10 0 11 -69 3 -86 -11 -8 -7 -13 -6
-16 2 -5 16 -67 -47 -97 -99 -14 -22 -27 -39 -31 -37 -8 5 -50 -49 -50 -64 0
-5 -6 -11 -14 -14 -15 -6 -29 -47 -15 -47 5 0 9 10 10 23 l0 22 12 -23 c7 -16
17 -22 29 -19 19 5 25 -8 8 -18 -18 -11 -10 -25 15 -25 25 0 33 -14 15 -25 -6
-4 -8 -10 -5 -15 6 -10 44 7 57 25 17 22 6 -23 -18 -80 -14 -33 -25 -77 -25
-97 1 -21 -2 -38 -7 -38 -15 0 -22 -66 -11 -104 7 -25 14 -33 24 -29 10 3 15
-1 15 -11 0 -16 18 -16 69 0 7 2 19 -2 25 -9 35 -41 130 -43 213 -6 23 11 46
19 51 19 5 0 14 6 20 13 6 7 25 14 43 15 17 1 43 11 58 21 14 10 36 22 49 26
14 4 40 33 63 68 21 34 46 70 56 80 31 32 32 267 0 267 -4 0 -5 22 -1 49 5 38
3 54 -9 65 -9 9 -19 16 -24 16 -10 0 -35 28 -51 56 -9 14 -12 15 -12 4 0 -13
-1 -13 -10 0 -8 13 -11 11 -16 -7 -5 -19 -10 -21 -25 -12 -10 5 -19 6 -19 2
-1 -4 -7 3 -15 17 -9 15 -14 19 -15 10z m-18 -394 c8 -42 -16 -36 -38 10 l-20
43 27 -14 c15 -8 29 -25 31 -39z m-202 41 c0 -2 -7 -18 -16 -36 -11 -22 -14
-44 -9 -67 5 -31 4 -35 -12 -30 -10 3 -30 8 -45 12 -18 4 -28 13 -28 25 0 23
73 99 95 99 8 0 15 -2 15 -3z m-163 -49 c-3 -8 -6 -5 -6 6 -1 11 2 17 5 13 3
-3 4 -12 1 -19z m313 -88 c0 -5 -4 -10 -10 -10 -5 0 -10 -8 -10 -18 0 -26 -50
-70 -85 -75 -16 -2 -37 -6 -45 -10 -8 -3 -39 -10 -69 -15 -51 -9 -55 -8 -78
16 -26 28 -30 52 -8 52 8 0 15 5 15 10 0 6 5 10 10 10 6 0 10 -6 10 -14 0 -19
39 -27 64 -13 12 6 27 10 34 9 6 -2 12 2 12 8 0 5 -4 10 -10 10 -5 0 -10 5
-10 10 0 6 15 10 33 11 17 0 55 7 82 14 66 17 65 17 65 5z"/>
<path d="M2500 2550 l-25 -8 28 -1 c15 -1 27 4 27 9 0 6 -1 10 -2 9 -2 -1 -14
-5 -28 -9z"/>
<path d="M3321 2636 c14 -15 11 -26 -6 -20 -27 11 -16 -13 23 -47 20 -18 36
-37 35 -41 -2 -4 5 -9 15 -10 31 -2 37 -4 59 -16 25 -14 67 -16 59 -3 -3 4 15
11 39 15 48 6 105 31 105 45 0 5 -15 11 -32 15 -18 4 -51 15 -73 25 -22 11
-58 25 -80 32 -46 16 -159 19 -144 5z"/>
<path d="M4072 1876 c1 -10 8 -17 13 -17 15 1 12 24 -3 29 -9 3 -13 -2 -10
-12z"/>
<path d="M3340 1850 c0 -5 4 -10 9 -10 6 0 13 5 16 10 3 6 -1 10 -9 10 -9 0
-16 -4 -16 -10z"/>
<path d="M4030 1821 c0 -5 5 -13 10 -16 6 -3 10 -2 10 4 0 5 -4 13 -10 16 -5
3 -10 2 -10 -4z"/>
<path d="M4070 1801 c0 -11 -2 -25 -3 -33 -2 -7 -2 -10 0 -5 10 16 23 5 24
-20 1 -27 1 -27 10 6 9 28 7 36 -10 53 -21 19 -21 19 -21 -1z"/>
<path d="M2176 1781 c-4 -7 -5 -15 -2 -18 9 -9 19 4 14 18 -4 11 -6 11 -12 0z"/>
<path d="M3285 1730 c2 -14 5 -29 5 -35 0 -15 20 18 20 33 0 7 -4 11 -9 8 -5
-4 -12 0 -15 6 -4 7 -4 2 -1 -12z"/>
<path d="M3886 1675 c4 -8 10 -15 15 -15 4 0 6 7 3 15 -4 8 -10 15 -15 15 -4
0 -6 -7 -3 -15z"/>
<path d="M3300 1655 c0 -8 4 -15 10 -15 5 0 7 7 4 15 -4 8 -8 15 -10 15 -2 0
-4 -7 -4 -15z"/>
<path d="M3530 1652 c0 -5 9 -17 20 -27 23 -21 27 -4 4 19 -17 18 -24 20 -24
8z"/>
<path d="M3892 1560 c0 -14 2 -19 5 -12 2 6 2 18 0 25 -3 6 -5 1 -5 -13z"/>
<path d="M3820 1503 c0 -13 5 -23 10 -23 13 0 13 11 0 30 -8 12 -10 11 -10 -7z"/>
<path d="M3790 1367 c0 -16 4 -26 10 -22 6 3 10 2 10 -4 0 -5 -6 -12 -12 -14
-8 -3 -6 -6 5 -6 21 -1 21 15 2 49 l-14 25 -1 -28z"/>
<path d="M3116 1621 c-4 -7 -5 -15 -2 -18 9 -9 19 4 14 18 -4 11 -6 11 -12 0z"/>
<path d="M3185 860 c-3 -5 -1 -10 4 -10 6 0 11 5 11 10 0 6 -2 10 -4 10 -3 0
-8 -4 -11 -10z"/>
<path d="M3162 840 c0 -14 2 -19 5 -12 2 6 2 18 0 25 -3 6 -5 1 -5 -13z"/>
<path d="M4130 626 c0 -8 4 -17 9 -20 5 -4 7 3 4 14 -6 23 -13 26 -13 6z"/>
<path d="M4061 607 c-8 -10 -7 -14 4 -14 8 0 15 6 15 14 0 7 -2 13 -4 13 -2 0
-9 -6 -15 -13z"/>
<path d="M4043 564 c-3 -8 -1 -25 5 -37 9 -19 10 -18 10 16 -1 40 -5 46 -15
21z"/>
<path d="M3980 486 c0 -8 -4 -16 -10 -18 -6 -2 -6 -8 0 -18 8 -12 11 -11 16 8
4 12 10 22 15 22 5 0 9 5 9 10 0 6 -7 10 -15 10 -8 0 -15 -6 -15 -14z"/>
<path d="M4640 486 c0 -2 8 -10 18 -17 15 -13 16 -12 3 4 -13 16 -21 21 -21
13z"/>
<path d="M4637 411 c3 -12 11 -17 19 -14 19 7 18 19 -2 27 -22 9 -23 8 -17
-13z"/>
<path d="M4670 240 c0 -5 5 -10 11 -10 5 0 7 5 4 10 -3 6 -8 10 -11 10 -2 0
-4 -4 -4 -10z"/>
<path d="M3581 650 c0 -8 4 -22 9 -30 12 -18 12 -2 0 25 -6 13 -9 15 -9 5z"/>
<path d="M3640 606 c0 -2 8 -10 18 -17 15 -13 16 -12 3 4 -13 16 -21 21 -21
13z"/>
<path d="M3440 550 c-7 -13 -7 -20 0 -20 5 0 10 8 11 18 0 14 2 14 9 -3 7 -16
9 -17 9 -3 1 26 -17 31 -29 8z"/>
<path d="M3284 519 c-3 -6 -1 -16 5 -22 8 -8 11 -5 11 11 0 24 -5 28 -16 11z"/>
<path d="M4429 625 c-1 -5 -3 -21 -5 -35 -1 -14 -4 -42 -7 -62 -4 -27 -1 -38
10 -42 12 -5 14 -15 10 -44 -4 -21 -3 -31 2 -24 7 11 10 10 15 -3 8 -23 8 -23
-11 -28 -14 -4 -12 -5 5 -6 15 -1 22 5 22 17 1 15 2 14 13 -3 7 -12 18 -21 26
-20 17 0 28 25 11 25 -23 0 -41 29 -35 57 5 23 4 25 -5 11 -6 -10 -15 -18 -20
-18 -17 0 -11 25 13 50 17 19 23 37 23 66 -1 24 -6 41 -13 41 -8 0 -9 -6 -2
-18 6 -12 5 -22 -6 -33 -10 -10 -11 -16 -3 -18 6 -2 8 -10 4 -16 -12 -19 -28
-2 -22 23 3 13 -1 38 -9 56 -8 19 -15 30 -16 24z"/>
<path d="M4363 451 c0 -11 5 -18 9 -15 4 3 5 11 1 19 -7 21 -12 19 -10 -4z"/>
<path d="M4345 400 c-3 -5 -1 -10 4 -10 6 0 11 5 11 10 0 6 -2 10 -4 10 -3 0
-8 -4 -11 -10z"/>
<path d="M4266 392 c-3 -6 -1 -12 6 -14 8 -3 8 -12 -2 -35 -8 -18 -18 -29 -22
-27 -4 3 -9 2 -9 -3 -7 -50 -6 -68 3 -75 19 -11 26 -1 34 47 3 25 10 43 14 40
19 -12 19 16 1 45 -10 18 -22 27 -25 22z"/>
<path d="M4328 373 c10 -16 17 -35 14 -43 -3 -8 -1 -12 3 -8 5 4 13 4 19 -1 7
-6 24 -12 38 -15 22 -4 26 -1 25 16 -1 11 -10 24 -19 29 -10 6 -16 14 -13 19
3 6 -1 7 -9 4 -9 -3 -13 -11 -9 -18 3 -6 -6 1 -22 17 -15 15 -32 27 -37 27 -5
0 -1 -12 10 -27z"/>
<path d="M4501 324 c0 -11 3 -14 6 -6 3 7 2 16 -1 19 -3 4 -6 -2 -5 -13z"/>
<path d="M4465 300 c-3 -5 -1 -10 4 -10 6 0 11 5 11 10 0 6 -2 10 -4 10 -3 0
-8 -4 -11 -10z"/>
<path d="M4212 270 c0 -14 2 -19 5 -12 2 6 2 18 0 25 -3 6 -5 1 -5 -13z"/>
<path d="M4437 283 c-4 -3 -7 -11 -7 -17 0 -6 5 -5 12 2 6 6 9 14 7 17 -3 3
-9 2 -12 -2z"/>
<path d="M4446 251 c-4 -7 -5 -15 -2 -18 9 -9 19 4 14 18 -4 11 -6 11 -12 0z"/>
<path d="M2471 5064 c0 -11 3 -14 6 -6 3 7 2 16 -1 19 -3 4 -6 -2 -5 -13z"/>
<path d="M2922 4990 c0 -14 2 -19 5 -12 2 6 2 18 0 25 -3 6 -5 1 -5 -13z"/>
<path d="M2267 4973 c-10 -10 -8 -25 2 -18 6 3 14 -2 19 -11 7 -13 14 -14 27
-6 17 9 17 10 -3 21 -12 7 -22 8 -22 4 0 -4 -4 -2 -8 5 -5 7 -11 9 -15 5z"/>
<path d="M2457 4938 c-2 -7 -1 -22 4 -33 6 -16 8 -14 8 13 1 33 -4 41 -12 20z"/>
<path d="M2333 4921 c-9 -15 -9 -22 0 -30 10 -7 13 -3 15 20 3 34 1 35 -15 10z"/>
<path d="M2432 4895 c0 -16 2 -22 5 -12 2 9 2 23 0 30 -3 6 -5 -1 -5 -18z"/>
<path d="M2601 4895 c1 -19 18 -51 18 -35 0 8 -4 22 -9 30 -5 8 -9 11 -9 5z"/>
<path d="M2831 4884 c0 -11 3 -14 6 -6 3 7 2 16 -1 19 -3 4 -6 -2 -5 -13z"/>
<path d="M2150 4882 c0 -5 7 -15 15 -22 8 -7 15 -9 15 -6 0 4 -7 14 -15 22 -8
9 -15 11 -15 6z"/>
<path d="M4002 4801 c-10 -6 -9 -10 7 -14 12 -3 27 -19 34 -36 7 -17 16 -29
19 -25 10 10 -13 64 -27 64 -7 0 -15 4 -17 10 -2 5 -9 6 -16 1z"/>
<path d="M2787 4753 c-4 -3 -7 -13 -7 -22 1 -13 3 -13 11 2 11 19 8 33 -4 20z"/>
<path d="M4080 4740 c-1 -3 -3 -20 -5 -39 -2 -27 -1 -31 7 -18 5 10 7 28 5 40
-2 12 -5 20 -7 17z"/>
<path d="M2281 4654 c0 -11 3 -14 6 -6 3 7 2 16 -1 19 -3 4 -6 -2 -5 -13z"/>
<path d="M4096 4648 c4 -13 7 -36 6 -53 -1 -23 1 -26 8 -14 11 19 1 89 -12 89
-5 0 -6 -10 -2 -22z"/>
<path d="M3940 4620 c0 -5 5 -10 11 -10 5 0 7 5 4 10 -3 6 -8 10 -11 10 -2 0
-4 -4 -4 -10z"/>
<path d="M2237 4543 c-4 -3 -7 -11 -7 -17 0 -6 5 -5 12 2 6 6 9 14 7 17 -3 3
-9 2 -12 -2z"/>
<path d="M3995 4542 c-36 -4 -58 -21 -29 -23 10 -1 29 0 42 1 12 1 22 -4 22
-12 0 -11 2 -11 9 0 4 8 11 13 15 12 3 0 14 4 24 9 25 14 8 25 -18 11 -13 -7
-25 -8 -29 -4 -3 5 -19 8 -36 6z"/>
<path d="M2006 4504 c-4 -14 -5 -29 -2 -31 3 -3 8 7 12 21 3 15 4 29 1 32 -2
3 -8 -7 -11 -22z"/>
<path d="M4098 4483 c7 -3 16 -2 19 1 4 3 -2 6 -13 5 -11 0 -14 -3 -6 -6z"/>
<path d="M4010 4464 c0 -2 9 -8 20 -14 11 -6 20 -7 20 -2 0 6 -9 12 -20 15
-11 3 -20 3 -20 1z"/>
<path d="M4097 4463 c-14 -13 -6 -32 12 -30 14 1 17 5 11 13 -6 6 -7 14 -3 17
3 4 2 7 -4 7 -5 0 -13 -3 -16 -7z"/>
<path d="M4160 4374 c0 -14 4 -23 9 -20 5 3 7 15 4 26 -7 28 -13 25 -13 -6z"/>
<path d="M2020 4335 c0 -2 10 -10 23 -16 20 -11 21 -11 8 4 -13 16 -31 23 -31
12z"/>
<path d="M4122 4308 c4 -9 0 -22 -8 -28 -16 -14 -19 -30 -5 -30 5 0 13 9 16
20 4 11 11 18 16 15 15 -10 10 5 -8 23 -16 16 -16 16 -11 0z"/>
<path d="M429 2123 c-13 -16 -12 -17 4 -4 9 7 17 15 17 17 0 8 -8 3 -21 -13z"/>
<path d="M400 2089 c0 -5 5 -7 10 -4 6 3 10 8 10 11 0 2 -4 4 -10 4 -5 0 -10
-5 -10 -11z"/>
<path d="M376 2016 c-8 -20 -21 -35 -27 -34 -7 2 -15 -5 -17 -15 -3 -16 -1
-17 17 -8 21 12 58 78 48 87 -3 4 -13 -10 -21 -30z"/>
<path d="M1270 2033 c0 -5 -19 -16 -42 -23 -24 -8 -46 -19 -50 -26 -4 -6 -29
-17 -55 -24 -27 -8 -54 -22 -61 -32 -7 -10 -25 -18 -39 -18 -16 0 -27 -7 -30
-20 -6 -22 -33 -34 -78 -35 -28 0 -29 -2 -27 -41 4 -54 -22 -68 -55 -30 -30
35 -40 33 -35 -9 6 -48 -22 -59 -54 -22 -33 39 -52 35 -50 -10 1 -46 -29 -60
-40 -19 -8 33 -18 33 -90 -6 -99 -53 -153 -90 -160 -111 -4 -12 -19 -39 -35
-60 -30 -42 -32 -62 -4 -33 9 9 23 16 31 16 10 0 13 6 9 19 -5 17 -1 18 39 14
24 -3 52 -1 62 5 16 9 23 6 42 -16 l22 -27 24 29 c21 25 27 28 40 17 9 -8 16
-21 16 -31 0 -12 10 -19 33 -23 26 -4 36 0 54 22 22 25 23 26 38 7 8 -11 15
-26 15 -33 0 -8 11 -13 28 -13 19 0 33 9 50 34 13 19 35 36 50 39 42 9 121 64
134 93 11 23 10 29 -3 37 -12 8 0 25 72 97 47 48 97 106 110 129 12 22 26 41
30 41 4 0 14 11 22 24 14 21 14 26 2 36 -8 7 -15 8 -15 3z m-190 -225 c-1 -22
-39 -60 -55 -54 -10 4 -14 -1 -12 -16 1 -11 -4 -23 -10 -25 -15 -6 -16 7 -3
41 6 18 15 24 30 21 14 -3 22 3 26 21 6 25 24 34 24 12z m-440 -98 c0 -24 -26
-38 -42 -22 -16 16 -2 42 22 42 13 0 20 -7 20 -20z m-92 -37 c-4 -22 -38 -30
-38 -10 0 14 13 24 33 26 5 1 7 -7 5 -16z m-68 -42 c0 -12 -20 -25 -27 -18 -7
7 6 27 18 27 5 0 9 -4 9 -9z"/>
<path d="M435 2001 c-9 -16 13 -23 35 -11 11 6 20 13 20 15 0 9 -49 5 -55 -4z"/>
<path d="M380 1953 c0 -5 10 -21 23 -37 18 -22 28 -27 45 -22 26 9 20 26 -10
26 -11 0 -22 8 -25 20 -5 19 -33 29 -33 13z"/>
<path d="M247 1853 c-11 -10 -8 -133 3 -133 6 0 10 17 10 39 0 21 3 53 6 70 6
29 -3 40 -19 24z"/>
<path d="M1210 1845 c0 -9 5 -15 11 -13 6 2 11 8 11 13 0 5 -5 11 -11 13 -6 2
-11 -4 -11 -13z"/>
<path d="M1167 1820 c-19 -23 -22 -40 -7 -40 6 0 10 5 10 11 0 6 7 9 15 5 11
-4 15 1 15 19 0 30 -10 32 -33 5z"/>
<path d="M1076 1597 c-9 -24 -15 -55 -13 -68 4 -22 9 -24 60 -24 31 0 59 3 62
7 7 6 -14 48 -29 59 -5 4 -6 19 -2 34 6 23 5 25 -11 16 -13 -7 -22 -6 -34 5
-14 13 -18 10 -33 -29z"/>
<path d="M337 1613 c-4 -3 -7 -11 -7 -17 0 -6 5 -5 12 2 6 6 9 14 7 17 -3 3
-9 2 -12 -2z"/>
<path d="M300 1580 c0 -5 5 -10 11 -10 5 0 7 5 4 10 -3 6 -8 10 -11 10 -2 0
-4 -4 -4 -10z"/>
<path d="M270 1545 c0 -8 4 -15 10 -15 5 0 7 7 4 15 -4 8 -8 15 -10 15 -2 0
-4 -7 -4 -15z"/>
<path d="M286 1500 c4 -14 11 -28 16 -31 6 -4 11 -19 13 -35 3 -41 15 -64 32
-64 12 0 14 -7 9 -31 -5 -27 -4 -30 9 -19 8 6 19 9 25 5 15 -9 12 -35 -5 -41
-25 -10 -17 -25 10 -20 13 3 29 7 34 10 5 3 12 -2 15 -11 4 -9 1 -20 -6 -25
-12 -7 -4 -12 15 -9 10 2 37 -25 37 -37 0 -14 29 -36 37 -28 4 3 1 12 -5 18
-21 21 -14 41 12 36 16 -3 23 -1 20 7 -3 7 -16 10 -29 8 -16 -4 -27 1 -34 16
-7 12 -9 21 -7 21 3 0 -18 25 -47 56 -46 50 -84 97 -140 174 l-18 25 7 -25z"/>
<path d="M390 1480 c-8 -5 -12 -11 -9 -14 2 -3 11 -1 19 4 8 5 12 11 9 14 -2
3 -11 1 -19 -4z"/>
<path d="M383 1438 c-5 -9 5 -10 70 -8 34 1 49 -3 53 -14 3 -8 14 -18 25 -21
10 -4 19 -12 19 -20 0 -7 8 -16 18 -20 14 -5 15 -4 5 6 -7 7 -13 21 -13 30 0
10 -8 20 -17 22 -10 3 0 5 21 6 33 1 44 13 15 17 -5 1 -10 2 -11 4 -8 6 -181
4 -185 -2z"/>
<path d="M620 1429 c0 -5 5 -9 10 -9 6 0 10 -9 10 -19 0 -10 7 -22 16 -25 14
-5 15 -4 4 9 -7 8 -10 21 -7 29 3 8 -2 16 -14 19 -10 3 -19 1 -19 -4z"/>
<path d="M423 1385 c7 -14 18 -25 25 -25 7 0 16 -8 19 -17 9 -24 34 -42 51
-36 9 4 7 9 -9 17 -27 13 -37 36 -16 36 10 0 13 8 9 25 -3 17 -11 25 -25 25
-16 0 -18 -3 -9 -12 16 -16 15 -28 -1 -28 -7 0 -18 9 -25 20 -18 29 -32 25
-19 -5z"/>
<path d="M1350 1340 c0 -5 5 -10 10 -10 6 0 10 5 10 10 0 6 -4 10 -10 10 -5 0
-10 -4 -10 -10z"/>
<path d="M681 1315 c0 -11 9 -33 20 -50 10 -16 23 -39 28 -50 9 -18 10 -17 10
8 1 15 -3 27 -9 27 -5 0 -10 9 -10 20 0 11 -5 20 -10 20 -6 0 -15 10 -20 23
-8 20 -9 20 -9 2z"/>
<path d="M1101 1327 c-1 -4 6 -23 13 -42 10 -23 11 -35 4 -35 -7 0 -7 -4 1
-13 6 -8 8 -17 5 -20 -4 -3 -26 14 -50 39 -24 25 -44 40 -44 34 0 -19 -49 -10
-64 12 -11 16 -16 18 -16 7 0 -23 21 -39 53 -39 19 0 38 -9 53 -25 l23 -25
-25 -6 c-19 -5 -31 0 -50 21 -14 15 -28 24 -32 20 -4 -3 1 -11 11 -16 29 -17
19 -31 -17 -26 -22 3 -45 16 -61 33 -20 23 -24 24 -16 7 15 -31 14 -33 -16
-33 -33 0 -47 8 -58 35 -7 17 -9 17 -12 4 -2 -9 8 -34 23 -55 19 -27 25 -32
21 -16 -5 20 -1 22 32 22 29 0 40 -5 49 -22 8 -18 11 -19 11 -5 1 26 81 25 81
-2 0 -10 7 -21 15 -25 13 -5 14 -2 4 15 -13 25 -12 26 26 31 25 2 31 -1 33
-19 2 -13 8 -23 14 -23 5 0 8 6 5 14 -8 19 13 36 44 36 21 0 26 4 23 18 -4 13
1 17 25 17 17 0 31 -4 31 -10 0 -5 4 -5 10 1 13 13 2 44 -15 44 -7 0 -15 7
-19 15 -3 8 -13 15 -22 15 -16 0 -16 -1 -1 -18 23 -26 21 -31 -10 -27 -16 2
-34 4 -40 4 -7 1 -19 16 -27 34 -8 17 -15 28 -15 24z"/>
<path d="M778 1293 c5 -21 7 -23 10 -9 2 10 0 22 -6 28 -6 6 -7 0 -4 -19z"/>
<path d="M1262 1312 c-27 -3 -30 -5 -19 -17 22 -21 39 -21 77 3 l35 22 -30 -2
c-16 -2 -45 -4 -63 -6z"/>
<path d="M510 1281 c0 -5 7 -12 16 -15 14 -5 15 -4 4 9 -14 17 -20 19 -20 6z"/>
<path d="M878 1283 c6 -2 18 -2 25 0 6 3 1 5 -13 5 -14 0 -19 -2 -12 -5z"/>
<path d="M1309 1243 c-13 -16 -12 -17 4 -4 16 13 21 21 13 21 -2 0 -10 -8 -17
-17z"/>
<path d="M405 1240 c-3 -5 -1 -10 4 -10 6 0 11 5 11 10 0 6 -2 10 -4 10 -3 0
-8 -4 -11 -10z"/>
<path d="M1251 1177 c-13 -21 -12 -21 5 -5 10 10 16 20 13 22 -3 3 -11 -5 -18
-17z"/>
<path d="M527 1119 c4 -13 8 -18 11 -10 2 7 -1 18 -6 23 -8 8 -9 4 -5 -13z"/>
<path d="M373 1079 c-15 -15 -17 -49 -4 -49 10 0 71 -61 71 -71 0 -14 56 -69
63 -63 4 4 -2 13 -13 21 -11 8 -20 23 -20 34 0 11 -4 18 -10 14 -5 -3 -17 9
-26 27 -9 18 -22 40 -29 48 -7 8 -15 23 -16 33 -3 15 -6 16 -16 6z"/>
<path d="M297 970 c-20 -20 -20 -61 1 -68 7 -2 10 2 7 11 -3 7 1 20 9 27 9 7
13 16 10 21 -3 5 2 9 10 9 9 0 16 5 16 10 0 16 -34 10 -53 -10z"/>
<path d="M519 852 c6 -12 16 -24 22 -28 8 -4 8 -1 0 14 -6 12 -16 24 -22 28
-8 4 -8 1 0 -14z"/>
<path d="M102 553 c-13 -41 -1 -76 23 -67 10 4 15 0 15 -15 0 -25 35 -30 44
-6 4 10 -1 15 -15 15 -18 0 -20 4 -15 25 4 14 2 25 -3 25 -4 0 -11 14 -14 30
-9 40 -21 38 -35 -7z m21 -23 c-3 -11 -7 -20 -9 -20 -2 0 -4 9 -4 20 0 11 4
20 9 20 5 0 7 -9 4 -20z"/>
<path d="M195 540 c-3 -5 -1 -10 4 -10 6 0 11 5 11 10 0 6 -2 10 -4 10 -3 0
-8 -4 -11 -10z"/>
<path d="M111 426 c-10 -12 -8 -13 8 -9 12 3 21 9 21 14 0 14 -16 11 -29 -5z"/>
<path d="M211 421 c-13 -11 -32 -23 -42 -26 -11 -4 -19 -11 -19 -18 0 -8 3 -8
11 0 6 6 18 9 26 6 16 -6 56 32 51 48 -2 6 -14 1 -27 -10z"/>
<path d="M292 420 c-7 -11 -22 -20 -34 -20 -17 0 -19 -3 -10 -12 16 -16 15
-28 -3 -28 -8 0 -15 6 -15 13 0 8 -4 7 -10 -3 -15 -24 -12 -30 16 -30 21 0 24
-4 19 -20 -12 -39 7 -42 32 -5 14 20 22 39 19 42 -3 3 -8 -2 -12 -11 -7 -19
-24 -12 -24 11 0 8 9 28 21 45 12 16 19 31 17 33 -2 2 -9 -5 -16 -15z"/>
<path d="M204 276 c-10 -8 -17 -17 -14 -19 3 -3 16 3 29 14 27 22 15 26 -15 5z"/>
<path d="M838 235 c-10 -14 -15 -31 -12 -42 5 -13 2 -11 -11 5 -12 17 -20 20
-29 13 -7 -6 -17 -7 -21 -3 -5 4 -5 2 -1 -5 4 -7 -6 -19 -23 -29 -18 -11 -33
-31 -40 -55 -7 -22 -17 -39 -23 -39 -6 0 -8 -11 -6 -24 4 -18 -1 -27 -19 -35
-31 -14 -31 -14 -37 7 -4 13 -4 13 -3 -3 2 -16 11 -21 48 -23 34 -2 48 1 52
12 4 9 2 18 -3 21 -6 4 -10 13 -10 21 0 10 7 13 25 8 20 -5 25 -2 25 12 0 11
15 33 32 49 24 24 28 25 19 8 -21 -42 -10 -38 34 12 43 48 44 50 22 56 -21 6
-21 7 6 18 16 6 33 11 38 11 5 0 9 5 9 11 0 7 -10 9 -25 7 -13 -3 -26 -2 -27
3 -2 4 -11 -3 -20 -16z"/>
<path d="M240 225 c-11 -13 -10 -14 4 -9 9 3 16 10 16 15 0 13 -6 11 -20 -6z"/>
<path d="M270 176 c0 -7 -10 -21 -22 -29 -23 -16 -23 -16 -2 -16 13 -1 25 9
32 24 15 32 15 35 2 35 -5 0 -10 -6 -10 -14z"/>
<path d="M300 112 c-9 -4 -15 -22 -16 -45 -1 -31 1 -35 13 -26 7 7 11 20 8 30
-4 13 -1 19 9 19 9 0 16 -5 16 -11 0 -5 4 -7 10 -4 6 4 5 13 -3 25 -13 22 -14
22 -37 12z"/>
<path d="M231 96 c-8 -9 -11 -19 -7 -23 9 -9 29 13 24 27 -2 8 -8 7 -17 -4z"/>
<path d="M5 71 c-9 -31 5 -71 25 -71 25 0 35 19 16 26 -9 3 -16 17 -16 29 0
31 -17 41 -25 16z"/>
<path d="M767 83 c-4 -3 -7 -11 -7 -17 0 -6 5 -5 12 2 6 6 9 14 7 17 -3 3 -9
2 -12 -2z"/>
<path d="M357 46 c-8 -21 16 -49 40 -44 14 3 13 7 -9 32 -21 25 -26 27 -31 12z"/>
<path d="M209 23 c-13 -16 -12 -17 4 -4 9 7 17 15 17 17 0 8 -8 3 -21 -13z"/>
</g>
</svg>
